<mxfile host="app.diagrams.net" agent="Mozilla/5.0 (Windows NT 10.0; Win64; x64) AppleWebKit/537.36 (KHTML, like Gecko) Chrome/134.0.0.0 Safari/537.36" version="26.1.3">
  <diagram name="Página-1" id="1hL9Om-VZf7akXX2MLqt">
    <mxGraphModel dx="1114" dy="566" grid="1" gridSize="10" guides="1" tooltips="1" connect="1" arrows="1" fold="1" page="1" pageScale="1" pageWidth="827" pageHeight="1169" math="0" shadow="0">
      <root>
        <mxCell id="0" />
        <mxCell id="1" parent="0" />
        <mxCell id="CLTjU7gQj4OqJzBRMQx3-3" value="Competição" style="html=1;dropTarget=0;whiteSpace=wrap;" vertex="1" parent="1">
          <mxGeometry x="10" y="400" width="130" height="60" as="geometry" />
        </mxCell>
        <mxCell id="CLTjU7gQj4OqJzBRMQx3-4" value="" style="shape=module;jettyWidth=8;jettyHeight=4;" vertex="1" parent="CLTjU7gQj4OqJzBRMQx3-3">
          <mxGeometry x="1" width="20" height="20" relative="1" as="geometry">
            <mxPoint x="-27" y="7" as="offset" />
          </mxGeometry>
        </mxCell>
        <mxCell id="CLTjU7gQj4OqJzBRMQx3-9" value="Local" style="html=1;dropTarget=0;whiteSpace=wrap;" vertex="1" parent="1">
          <mxGeometry x="300" y="400" width="100" height="60" as="geometry" />
        </mxCell>
        <mxCell id="CLTjU7gQj4OqJzBRMQx3-10" value="" style="shape=module;jettyWidth=8;jettyHeight=4;" vertex="1" parent="CLTjU7gQj4OqJzBRMQx3-9">
          <mxGeometry x="1" width="20" height="20" relative="1" as="geometry">
            <mxPoint x="-27" y="7" as="offset" />
          </mxGeometry>
        </mxCell>
        <mxCell id="CLTjU7gQj4OqJzBRMQx3-11" value="Inscrição" style="html=1;dropTarget=0;whiteSpace=wrap;" vertex="1" parent="1">
          <mxGeometry x="160" y="400" width="110" height="60" as="geometry" />
        </mxCell>
        <mxCell id="CLTjU7gQj4OqJzBRMQx3-12" value="" style="shape=module;jettyWidth=8;jettyHeight=4;" vertex="1" parent="CLTjU7gQj4OqJzBRMQx3-11">
          <mxGeometry x="1" width="20" height="20" relative="1" as="geometry">
            <mxPoint x="-27" y="7" as="offset" />
          </mxGeometry>
        </mxCell>
        <mxCell id="CLTjU7gQj4OqJzBRMQx3-13" value="Resultados" style="html=1;dropTarget=0;whiteSpace=wrap;" vertex="1" parent="1">
          <mxGeometry x="550" y="400" width="120" height="60" as="geometry" />
        </mxCell>
        <mxCell id="CLTjU7gQj4OqJzBRMQx3-14" value="" style="shape=module;jettyWidth=8;jettyHeight=4;" vertex="1" parent="CLTjU7gQj4OqJzBRMQx3-13">
          <mxGeometry x="1" width="20" height="20" relative="1" as="geometry">
            <mxPoint x="-27" y="7" as="offset" />
          </mxGeometry>
        </mxCell>
        <mxCell id="CLTjU7gQj4OqJzBRMQx3-15" value="Relatórios" style="html=1;dropTarget=0;whiteSpace=wrap;" vertex="1" parent="1">
          <mxGeometry x="700" y="400" width="120" height="60" as="geometry" />
        </mxCell>
        <mxCell id="CLTjU7gQj4OqJzBRMQx3-16" value="" style="shape=module;jettyWidth=8;jettyHeight=4;" vertex="1" parent="CLTjU7gQj4OqJzBRMQx3-15">
          <mxGeometry x="1" width="20" height="20" relative="1" as="geometry">
            <mxPoint x="-27" y="7" as="offset" />
          </mxGeometry>
        </mxCell>
        <mxCell id="CLTjU7gQj4OqJzBRMQx3-19" value="Atletas" style="html=1;dropTarget=0;whiteSpace=wrap;" vertex="1" parent="1">
          <mxGeometry x="431" y="400" width="100" height="60" as="geometry" />
        </mxCell>
        <mxCell id="CLTjU7gQj4OqJzBRMQx3-20" value="" style="shape=module;jettyWidth=8;jettyHeight=4;" vertex="1" parent="CLTjU7gQj4OqJzBRMQx3-19">
          <mxGeometry x="1" width="20" height="20" relative="1" as="geometry">
            <mxPoint x="-27" y="7" as="offset" />
          </mxGeometry>
        </mxCell>
        <mxCell id="CLTjU7gQj4OqJzBRMQx3-25" style="edgeStyle=orthogonalEdgeStyle;rounded=0;orthogonalLoop=1;jettySize=auto;html=1;endArrow=none;startFill=0;" edge="1" parent="1" source="CLTjU7gQj4OqJzBRMQx3-21">
          <mxGeometry relative="1" as="geometry">
            <mxPoint x="75" y="280" as="targetPoint" />
            <Array as="points">
              <mxPoint x="413" y="280" />
              <mxPoint x="75" y="280" />
            </Array>
          </mxGeometry>
        </mxCell>
        <mxCell id="CLTjU7gQj4OqJzBRMQx3-21" value="API LAYER" style="html=1;dropTarget=0;whiteSpace=wrap;" vertex="1" parent="1">
          <mxGeometry x="340" y="170" width="146" height="60" as="geometry" />
        </mxCell>
        <mxCell id="CLTjU7gQj4OqJzBRMQx3-22" value="" style="shape=module;jettyWidth=8;jettyHeight=4;" vertex="1" parent="CLTjU7gQj4OqJzBRMQx3-21">
          <mxGeometry x="1" width="20" height="20" relative="1" as="geometry">
            <mxPoint x="-27" y="7" as="offset" />
          </mxGeometry>
        </mxCell>
        <mxCell id="CLTjU7gQj4OqJzBRMQx3-28" style="edgeStyle=orthogonalEdgeStyle;rounded=0;orthogonalLoop=1;jettySize=auto;html=1;endArrow=none;startFill=0;" edge="1" parent="1">
          <mxGeometry relative="1" as="geometry">
            <mxPoint x="410" y="280" as="sourcePoint" />
            <mxPoint x="760" y="280" as="targetPoint" />
            <Array as="points">
              <mxPoint x="670" y="280" />
            </Array>
          </mxGeometry>
        </mxCell>
        <mxCell id="CLTjU7gQj4OqJzBRMQx3-43" value="" style="rounded=0;orthogonalLoop=1;jettySize=auto;html=1;endArrow=halfCircle;endFill=0;endSize=6;strokeWidth=1;sketch=0;" edge="1" target="CLTjU7gQj4OqJzBRMQx3-45" parent="1">
          <mxGeometry relative="1" as="geometry">
            <mxPoint x="350" y="280" as="sourcePoint" />
          </mxGeometry>
        </mxCell>
        <mxCell id="CLTjU7gQj4OqJzBRMQx3-44" value="" style="rounded=0;orthogonalLoop=1;jettySize=auto;html=1;endArrow=oval;endFill=0;sketch=0;sourcePerimeterSpacing=0;targetPerimeterSpacing=0;endSize=10;exitX=0.5;exitY=0;exitDx=0;exitDy=0;" edge="1" target="CLTjU7gQj4OqJzBRMQx3-45" parent="1" source="CLTjU7gQj4OqJzBRMQx3-46">
          <mxGeometry relative="1" as="geometry">
            <mxPoint x="360" y="350" as="sourcePoint" />
          </mxGeometry>
        </mxCell>
        <mxCell id="CLTjU7gQj4OqJzBRMQx3-45" value="" style="ellipse;whiteSpace=wrap;html=1;align=center;aspect=fixed;fillColor=none;strokeColor=none;resizable=0;perimeter=centerPerimeter;rotatable=0;allowArrows=0;points=[];outlineConnect=1;" vertex="1" parent="1">
          <mxGeometry x="345" y="310" width="10" height="10" as="geometry" />
        </mxCell>
        <mxCell id="CLTjU7gQj4OqJzBRMQx3-48" value="" style="rounded=0;orthogonalLoop=1;jettySize=auto;html=1;endArrow=halfCircle;endFill=0;endSize=6;strokeWidth=1;sketch=0;" edge="1" parent="1" target="CLTjU7gQj4OqJzBRMQx3-50">
          <mxGeometry relative="1" as="geometry">
            <mxPoint x="480" y="280" as="sourcePoint" />
          </mxGeometry>
        </mxCell>
        <mxCell id="CLTjU7gQj4OqJzBRMQx3-49" value="" style="rounded=0;orthogonalLoop=1;jettySize=auto;html=1;endArrow=oval;endFill=0;sketch=0;sourcePerimeterSpacing=0;targetPerimeterSpacing=0;endSize=10;exitX=0.5;exitY=0;exitDx=0;exitDy=0;" edge="1" parent="1" target="CLTjU7gQj4OqJzBRMQx3-50" source="CLTjU7gQj4OqJzBRMQx3-51">
          <mxGeometry relative="1" as="geometry">
            <mxPoint x="360" y="370" as="sourcePoint" />
          </mxGeometry>
        </mxCell>
        <mxCell id="CLTjU7gQj4OqJzBRMQx3-50" value="" style="ellipse;whiteSpace=wrap;html=1;align=center;aspect=fixed;fillColor=none;strokeColor=none;resizable=0;perimeter=centerPerimeter;rotatable=0;allowArrows=0;points=[];outlineConnect=1;" vertex="1" parent="1">
          <mxGeometry x="476" y="310" width="10" height="10" as="geometry" />
        </mxCell>
        <mxCell id="CLTjU7gQj4OqJzBRMQx3-53" value="" style="rounded=0;orthogonalLoop=1;jettySize=auto;html=1;endArrow=halfCircle;endFill=0;endSize=6;strokeWidth=1;sketch=0;" edge="1" parent="1" target="CLTjU7gQj4OqJzBRMQx3-55">
          <mxGeometry relative="1" as="geometry">
            <mxPoint x="215" y="280" as="sourcePoint" />
          </mxGeometry>
        </mxCell>
        <mxCell id="CLTjU7gQj4OqJzBRMQx3-54" value="" style="rounded=0;orthogonalLoop=1;jettySize=auto;html=1;endArrow=oval;endFill=0;sketch=0;sourcePerimeterSpacing=0;targetPerimeterSpacing=0;endSize=10;exitX=0.5;exitY=0;exitDx=0;exitDy=0;" edge="1" parent="1" target="CLTjU7gQj4OqJzBRMQx3-55" source="CLTjU7gQj4OqJzBRMQx3-56">
          <mxGeometry relative="1" as="geometry">
            <mxPoint x="370" y="380" as="sourcePoint" />
          </mxGeometry>
        </mxCell>
        <mxCell id="CLTjU7gQj4OqJzBRMQx3-55" value="" style="ellipse;whiteSpace=wrap;html=1;align=center;aspect=fixed;fillColor=none;strokeColor=none;resizable=0;perimeter=centerPerimeter;rotatable=0;allowArrows=0;points=[];outlineConnect=1;" vertex="1" parent="1">
          <mxGeometry x="210" y="310" width="10" height="10" as="geometry" />
        </mxCell>
        <mxCell id="CLTjU7gQj4OqJzBRMQx3-57" value="" style="rounded=0;orthogonalLoop=1;jettySize=auto;html=1;endArrow=halfCircle;endFill=0;endSize=6;strokeWidth=1;sketch=0;" edge="1" parent="1" target="CLTjU7gQj4OqJzBRMQx3-59">
          <mxGeometry relative="1" as="geometry">
            <mxPoint x="610" y="280" as="sourcePoint" />
          </mxGeometry>
        </mxCell>
        <mxCell id="CLTjU7gQj4OqJzBRMQx3-58" value="" style="rounded=0;orthogonalLoop=1;jettySize=auto;html=1;endArrow=oval;endFill=0;sketch=0;sourcePerimeterSpacing=0;targetPerimeterSpacing=0;endSize=10;exitX=0.5;exitY=0;exitDx=0;exitDy=0;" edge="1" parent="1" target="CLTjU7gQj4OqJzBRMQx3-59" source="CLTjU7gQj4OqJzBRMQx3-61">
          <mxGeometry relative="1" as="geometry">
            <mxPoint x="380" y="390" as="sourcePoint" />
          </mxGeometry>
        </mxCell>
        <mxCell id="CLTjU7gQj4OqJzBRMQx3-59" value="" style="ellipse;whiteSpace=wrap;html=1;align=center;aspect=fixed;fillColor=none;strokeColor=none;resizable=0;perimeter=centerPerimeter;rotatable=0;allowArrows=0;points=[];outlineConnect=1;" vertex="1" parent="1">
          <mxGeometry x="605" y="310" width="10" height="10" as="geometry" />
        </mxCell>
        <mxCell id="CLTjU7gQj4OqJzBRMQx3-67" value="" style="rounded=0;orthogonalLoop=1;jettySize=auto;html=1;endArrow=halfCircle;endFill=0;endSize=6;strokeWidth=1;sketch=0;" edge="1" parent="1" target="CLTjU7gQj4OqJzBRMQx3-69">
          <mxGeometry relative="1" as="geometry">
            <mxPoint x="75" y="280" as="sourcePoint" />
          </mxGeometry>
        </mxCell>
        <mxCell id="CLTjU7gQj4OqJzBRMQx3-68" value="" style="rounded=0;orthogonalLoop=1;jettySize=auto;html=1;endArrow=oval;endFill=0;sketch=0;sourcePerimeterSpacing=0;targetPerimeterSpacing=0;endSize=10;exitX=0.5;exitY=0;exitDx=0;exitDy=0;" edge="1" parent="1" target="CLTjU7gQj4OqJzBRMQx3-69" source="CLTjU7gQj4OqJzBRMQx3-70">
          <mxGeometry relative="1" as="geometry">
            <mxPoint x="225" y="370" as="sourcePoint" />
          </mxGeometry>
        </mxCell>
        <mxCell id="CLTjU7gQj4OqJzBRMQx3-69" value="" style="ellipse;whiteSpace=wrap;html=1;align=center;aspect=fixed;fillColor=none;strokeColor=none;resizable=0;perimeter=centerPerimeter;rotatable=0;allowArrows=0;points=[];outlineConnect=1;" vertex="1" parent="1">
          <mxGeometry x="70" y="310" width="10" height="10" as="geometry" />
        </mxCell>
        <mxCell id="CLTjU7gQj4OqJzBRMQx3-71" value="" style="rounded=0;orthogonalLoop=1;jettySize=auto;html=1;endArrow=halfCircle;endFill=0;endSize=6;strokeWidth=1;sketch=0;" edge="1" parent="1" target="CLTjU7gQj4OqJzBRMQx3-73">
          <mxGeometry relative="1" as="geometry">
            <mxPoint x="760" y="280" as="sourcePoint" />
          </mxGeometry>
        </mxCell>
        <mxCell id="CLTjU7gQj4OqJzBRMQx3-72" value="" style="rounded=0;orthogonalLoop=1;jettySize=auto;html=1;endArrow=oval;endFill=0;sketch=0;sourcePerimeterSpacing=0;targetPerimeterSpacing=0;endSize=10;exitX=0.5;exitY=0;exitDx=0;exitDy=0;" edge="1" parent="1" target="CLTjU7gQj4OqJzBRMQx3-73" source="CLTjU7gQj4OqJzBRMQx3-60">
          <mxGeometry relative="1" as="geometry">
            <mxPoint x="235" y="380" as="sourcePoint" />
            <Array as="points" />
          </mxGeometry>
        </mxCell>
        <mxCell id="CLTjU7gQj4OqJzBRMQx3-73" value="" style="ellipse;whiteSpace=wrap;html=1;align=center;aspect=fixed;fillColor=none;strokeColor=none;resizable=0;perimeter=centerPerimeter;rotatable=0;allowArrows=0;points=[];outlineConnect=1;" vertex="1" parent="1">
          <mxGeometry x="755" y="310" width="10" height="10" as="geometry" />
        </mxCell>
        <mxCell id="CLTjU7gQj4OqJzBRMQx3-78" value="" style="sketch=0;outlineConnect=0;fontColor=#232F3E;gradientColor=none;fillColor=#C925D1;strokeColor=none;dashed=0;verticalLabelPosition=bottom;verticalAlign=top;align=center;html=1;fontSize=12;fontStyle=0;aspect=fixed;pointerEvents=1;shape=mxgraph.aws4.rds_postgresql_instance;" vertex="1" parent="1">
          <mxGeometry x="348" y="670" width="138" height="138" as="geometry" />
        </mxCell>
        <mxCell id="CLTjU7gQj4OqJzBRMQx3-85" value="Interface de Usuário&lt;div&gt;(Administrador)&lt;/div&gt;" style="html=1;dropTarget=0;whiteSpace=wrap;" vertex="1" parent="1">
          <mxGeometry x="185" y="60" width="170" height="60" as="geometry" />
        </mxCell>
        <mxCell id="CLTjU7gQj4OqJzBRMQx3-86" value="" style="shape=module;jettyWidth=8;jettyHeight=4;" vertex="1" parent="CLTjU7gQj4OqJzBRMQx3-85">
          <mxGeometry x="1" width="20" height="20" relative="1" as="geometry">
            <mxPoint x="-27" y="7" as="offset" />
          </mxGeometry>
        </mxCell>
        <mxCell id="CLTjU7gQj4OqJzBRMQx3-91" value="" style="rounded=0;orthogonalLoop=1;jettySize=auto;html=1;endArrow=halfCircle;endFill=0;endSize=6;strokeWidth=1;sketch=0;exitX=0.5;exitY=1;exitDx=0;exitDy=0;" edge="1" parent="1" target="CLTjU7gQj4OqJzBRMQx3-93" source="CLTjU7gQj4OqJzBRMQx3-3">
          <mxGeometry relative="1" as="geometry">
            <mxPoint x="85" y="290" as="sourcePoint" />
          </mxGeometry>
        </mxCell>
        <mxCell id="CLTjU7gQj4OqJzBRMQx3-92" value="" style="rounded=0;orthogonalLoop=1;jettySize=auto;html=1;endArrow=oval;endFill=0;sketch=0;sourcePerimeterSpacing=0;targetPerimeterSpacing=0;endSize=10;" edge="1" parent="1" target="CLTjU7gQj4OqJzBRMQx3-93" source="CLTjU7gQj4OqJzBRMQx3-94">
          <mxGeometry relative="1" as="geometry">
            <mxPoint x="81.5" y="450" as="sourcePoint" />
          </mxGeometry>
        </mxCell>
        <mxCell id="CLTjU7gQj4OqJzBRMQx3-93" value="" style="ellipse;whiteSpace=wrap;html=1;align=center;aspect=fixed;fillColor=none;strokeColor=none;resizable=0;perimeter=centerPerimeter;rotatable=0;allowArrows=0;points=[];outlineConnect=1;" vertex="1" parent="1">
          <mxGeometry x="70" y="490" width="10" height="10" as="geometry" />
        </mxCell>
        <mxCell id="CLTjU7gQj4OqJzBRMQx3-70" value="REST" style="text;html=1;align=center;verticalAlign=middle;resizable=0;points=[];autosize=1;strokeColor=none;fillColor=none;" vertex="1" parent="1">
          <mxGeometry x="45" y="330" width="60" height="30" as="geometry" />
        </mxCell>
        <mxCell id="CLTjU7gQj4OqJzBRMQx3-56" value="REST" style="text;html=1;align=center;verticalAlign=middle;resizable=0;points=[];autosize=1;strokeColor=none;fillColor=none;" vertex="1" parent="1">
          <mxGeometry x="185" y="330" width="60" height="30" as="geometry" />
        </mxCell>
        <mxCell id="CLTjU7gQj4OqJzBRMQx3-46" value="REST" style="text;html=1;align=center;verticalAlign=middle;resizable=0;points=[];autosize=1;strokeColor=none;fillColor=none;" vertex="1" parent="1">
          <mxGeometry x="320" y="330" width="60" height="30" as="geometry" />
        </mxCell>
        <mxCell id="CLTjU7gQj4OqJzBRMQx3-51" value="REST" style="text;html=1;align=center;verticalAlign=middle;resizable=0;points=[];autosize=1;strokeColor=none;fillColor=none;" vertex="1" parent="1">
          <mxGeometry x="450" y="330" width="60" height="30" as="geometry" />
        </mxCell>
        <mxCell id="CLTjU7gQj4OqJzBRMQx3-61" value="REST" style="text;html=1;align=center;verticalAlign=middle;resizable=0;points=[];autosize=1;strokeColor=none;fillColor=none;" vertex="1" parent="1">
          <mxGeometry x="580" y="330" width="60" height="30" as="geometry" />
        </mxCell>
        <mxCell id="CLTjU7gQj4OqJzBRMQx3-60" value="REST" style="text;html=1;align=center;verticalAlign=middle;resizable=0;points=[];autosize=1;strokeColor=none;fillColor=none;" vertex="1" parent="1">
          <mxGeometry x="730" y="330" width="60" height="30" as="geometry" />
        </mxCell>
        <mxCell id="CLTjU7gQj4OqJzBRMQx3-94" value="TCP/IP" style="text;html=1;align=center;verticalAlign=middle;resizable=0;points=[];autosize=1;strokeColor=none;fillColor=none;" vertex="1" parent="1">
          <mxGeometry x="45" y="500" width="60" height="30" as="geometry" />
        </mxCell>
        <mxCell id="CLTjU7gQj4OqJzBRMQx3-104" value="" style="endArrow=none;html=1;rounded=0;entryX=0.5;entryY=1;entryDx=0;entryDy=0;entryPerimeter=0;" edge="1" parent="1" source="CLTjU7gQj4OqJzBRMQx3-15" target="CLTjU7gQj4OqJzBRMQx3-60">
          <mxGeometry width="50" height="50" relative="1" as="geometry">
            <mxPoint x="390" y="420" as="sourcePoint" />
            <mxPoint x="440" y="370" as="targetPoint" />
          </mxGeometry>
        </mxCell>
        <mxCell id="CLTjU7gQj4OqJzBRMQx3-105" value="" style="endArrow=none;html=1;rounded=0;entryX=0.5;entryY=1;entryDx=0;entryDy=0;entryPerimeter=0;" edge="1" parent="1">
          <mxGeometry width="50" height="50" relative="1" as="geometry">
            <mxPoint x="609.5" y="400" as="sourcePoint" />
            <mxPoint x="609.5" y="360" as="targetPoint" />
          </mxGeometry>
        </mxCell>
        <mxCell id="CLTjU7gQj4OqJzBRMQx3-106" value="" style="endArrow=none;html=1;rounded=0;entryX=0.5;entryY=1;entryDx=0;entryDy=0;entryPerimeter=0;" edge="1" parent="1">
          <mxGeometry width="50" height="50" relative="1" as="geometry">
            <mxPoint x="480.5" y="400" as="sourcePoint" />
            <mxPoint x="480.5" y="360" as="targetPoint" />
          </mxGeometry>
        </mxCell>
        <mxCell id="CLTjU7gQj4OqJzBRMQx3-107" value="" style="endArrow=none;html=1;rounded=0;entryX=0.5;entryY=1;entryDx=0;entryDy=0;entryPerimeter=0;" edge="1" parent="1">
          <mxGeometry width="50" height="50" relative="1" as="geometry">
            <mxPoint x="349.5" y="400" as="sourcePoint" />
            <mxPoint x="349.5" y="360" as="targetPoint" />
          </mxGeometry>
        </mxCell>
        <mxCell id="CLTjU7gQj4OqJzBRMQx3-108" value="" style="endArrow=none;html=1;rounded=0;entryX=0.5;entryY=1;entryDx=0;entryDy=0;entryPerimeter=0;" edge="1" parent="1">
          <mxGeometry width="50" height="50" relative="1" as="geometry">
            <mxPoint x="214.5" y="400" as="sourcePoint" />
            <mxPoint x="214.5" y="360" as="targetPoint" />
          </mxGeometry>
        </mxCell>
        <mxCell id="CLTjU7gQj4OqJzBRMQx3-109" value="" style="endArrow=none;html=1;rounded=0;entryX=0.5;entryY=1.033;entryDx=0;entryDy=0;entryPerimeter=0;exitX=0.5;exitY=0;exitDx=0;exitDy=0;" edge="1" parent="1" source="CLTjU7gQj4OqJzBRMQx3-3" target="CLTjU7gQj4OqJzBRMQx3-70">
          <mxGeometry width="50" height="50" relative="1" as="geometry">
            <mxPoint x="510.5" y="430" as="sourcePoint" />
            <mxPoint x="290" y="380" as="targetPoint" />
          </mxGeometry>
        </mxCell>
        <mxCell id="CLTjU7gQj4OqJzBRMQx3-110" value="" style="endArrow=none;html=1;rounded=0;entryX=0.5;entryY=1.033;entryDx=0;entryDy=0;entryPerimeter=0;" edge="1" parent="1">
          <mxGeometry width="50" height="50" relative="1" as="geometry">
            <mxPoint x="75" y="600" as="sourcePoint" />
            <mxPoint x="74.5" y="530" as="targetPoint" />
          </mxGeometry>
        </mxCell>
        <mxCell id="CLTjU7gQj4OqJzBRMQx3-111" value="" style="rounded=0;orthogonalLoop=1;jettySize=auto;html=1;endArrow=halfCircle;endFill=0;endSize=6;strokeWidth=1;sketch=0;exitX=0.5;exitY=1;exitDx=0;exitDy=0;" edge="1" parent="1" target="CLTjU7gQj4OqJzBRMQx3-113">
          <mxGeometry relative="1" as="geometry">
            <mxPoint x="211.5" y="460" as="sourcePoint" />
          </mxGeometry>
        </mxCell>
        <mxCell id="CLTjU7gQj4OqJzBRMQx3-112" value="" style="rounded=0;orthogonalLoop=1;jettySize=auto;html=1;endArrow=oval;endFill=0;sketch=0;sourcePerimeterSpacing=0;targetPerimeterSpacing=0;endSize=10;" edge="1" parent="1" source="CLTjU7gQj4OqJzBRMQx3-114" target="CLTjU7gQj4OqJzBRMQx3-113">
          <mxGeometry relative="1" as="geometry">
            <mxPoint x="218" y="450" as="sourcePoint" />
          </mxGeometry>
        </mxCell>
        <mxCell id="CLTjU7gQj4OqJzBRMQx3-113" value="" style="ellipse;whiteSpace=wrap;html=1;align=center;aspect=fixed;fillColor=none;strokeColor=none;resizable=0;perimeter=centerPerimeter;rotatable=0;allowArrows=0;points=[];outlineConnect=1;" vertex="1" parent="1">
          <mxGeometry x="206.5" y="490" width="10" height="10" as="geometry" />
        </mxCell>
        <mxCell id="CLTjU7gQj4OqJzBRMQx3-114" value="TCP/IP" style="text;html=1;align=center;verticalAlign=middle;resizable=0;points=[];autosize=1;strokeColor=none;fillColor=none;" vertex="1" parent="1">
          <mxGeometry x="181.5" y="500" width="60" height="30" as="geometry" />
        </mxCell>
        <mxCell id="CLTjU7gQj4OqJzBRMQx3-115" value="" style="endArrow=none;html=1;rounded=0;entryX=0.5;entryY=1.033;entryDx=0;entryDy=0;entryPerimeter=0;" edge="1" parent="1">
          <mxGeometry width="50" height="50" relative="1" as="geometry">
            <mxPoint x="211" y="600" as="sourcePoint" />
            <mxPoint x="211" y="530" as="targetPoint" />
          </mxGeometry>
        </mxCell>
        <mxCell id="CLTjU7gQj4OqJzBRMQx3-116" value="" style="rounded=0;orthogonalLoop=1;jettySize=auto;html=1;endArrow=halfCircle;endFill=0;endSize=6;strokeWidth=1;sketch=0;exitX=0.5;exitY=1;exitDx=0;exitDy=0;" edge="1" parent="1" target="CLTjU7gQj4OqJzBRMQx3-118">
          <mxGeometry relative="1" as="geometry">
            <mxPoint x="350" y="460" as="sourcePoint" />
          </mxGeometry>
        </mxCell>
        <mxCell id="CLTjU7gQj4OqJzBRMQx3-117" value="" style="rounded=0;orthogonalLoop=1;jettySize=auto;html=1;endArrow=oval;endFill=0;sketch=0;sourcePerimeterSpacing=0;targetPerimeterSpacing=0;endSize=10;" edge="1" parent="1" source="CLTjU7gQj4OqJzBRMQx3-119" target="CLTjU7gQj4OqJzBRMQx3-118">
          <mxGeometry relative="1" as="geometry">
            <mxPoint x="356.5" y="450" as="sourcePoint" />
          </mxGeometry>
        </mxCell>
        <mxCell id="CLTjU7gQj4OqJzBRMQx3-118" value="" style="ellipse;whiteSpace=wrap;html=1;align=center;aspect=fixed;fillColor=none;strokeColor=none;resizable=0;perimeter=centerPerimeter;rotatable=0;allowArrows=0;points=[];outlineConnect=1;" vertex="1" parent="1">
          <mxGeometry x="345" y="490" width="10" height="10" as="geometry" />
        </mxCell>
        <mxCell id="CLTjU7gQj4OqJzBRMQx3-119" value="TCP/IP" style="text;html=1;align=center;verticalAlign=middle;resizable=0;points=[];autosize=1;strokeColor=none;fillColor=none;" vertex="1" parent="1">
          <mxGeometry x="320" y="500" width="60" height="30" as="geometry" />
        </mxCell>
        <mxCell id="CLTjU7gQj4OqJzBRMQx3-120" value="" style="endArrow=none;html=1;rounded=0;entryX=0.5;entryY=1.033;entryDx=0;entryDy=0;entryPerimeter=0;" edge="1" parent="1">
          <mxGeometry width="50" height="50" relative="1" as="geometry">
            <mxPoint x="350" y="600" as="sourcePoint" />
            <mxPoint x="349.5" y="530" as="targetPoint" />
          </mxGeometry>
        </mxCell>
        <mxCell id="CLTjU7gQj4OqJzBRMQx3-121" value="" style="rounded=0;orthogonalLoop=1;jettySize=auto;html=1;endArrow=halfCircle;endFill=0;endSize=6;strokeWidth=1;sketch=0;exitX=0.5;exitY=1;exitDx=0;exitDy=0;" edge="1" parent="1" target="CLTjU7gQj4OqJzBRMQx3-123">
          <mxGeometry relative="1" as="geometry">
            <mxPoint x="480" y="460" as="sourcePoint" />
          </mxGeometry>
        </mxCell>
        <mxCell id="CLTjU7gQj4OqJzBRMQx3-122" value="" style="rounded=0;orthogonalLoop=1;jettySize=auto;html=1;endArrow=oval;endFill=0;sketch=0;sourcePerimeterSpacing=0;targetPerimeterSpacing=0;endSize=10;" edge="1" parent="1" source="CLTjU7gQj4OqJzBRMQx3-124" target="CLTjU7gQj4OqJzBRMQx3-123">
          <mxGeometry relative="1" as="geometry">
            <mxPoint x="486.5" y="450" as="sourcePoint" />
          </mxGeometry>
        </mxCell>
        <mxCell id="CLTjU7gQj4OqJzBRMQx3-123" value="" style="ellipse;whiteSpace=wrap;html=1;align=center;aspect=fixed;fillColor=none;strokeColor=none;resizable=0;perimeter=centerPerimeter;rotatable=0;allowArrows=0;points=[];outlineConnect=1;" vertex="1" parent="1">
          <mxGeometry x="475" y="490" width="10" height="10" as="geometry" />
        </mxCell>
        <mxCell id="CLTjU7gQj4OqJzBRMQx3-124" value="TCP/IP" style="text;html=1;align=center;verticalAlign=middle;resizable=0;points=[];autosize=1;strokeColor=none;fillColor=none;" vertex="1" parent="1">
          <mxGeometry x="450" y="500" width="60" height="30" as="geometry" />
        </mxCell>
        <mxCell id="CLTjU7gQj4OqJzBRMQx3-125" value="" style="endArrow=none;html=1;rounded=0;entryX=0.5;entryY=1.033;entryDx=0;entryDy=0;entryPerimeter=0;" edge="1" parent="1">
          <mxGeometry width="50" height="50" relative="1" as="geometry">
            <mxPoint x="480" y="600" as="sourcePoint" />
            <mxPoint x="479.5" y="530" as="targetPoint" />
          </mxGeometry>
        </mxCell>
        <mxCell id="CLTjU7gQj4OqJzBRMQx3-126" value="" style="rounded=0;orthogonalLoop=1;jettySize=auto;html=1;endArrow=halfCircle;endFill=0;endSize=6;strokeWidth=1;sketch=0;exitX=0.5;exitY=1;exitDx=0;exitDy=0;" edge="1" parent="1" target="CLTjU7gQj4OqJzBRMQx3-128">
          <mxGeometry relative="1" as="geometry">
            <mxPoint x="606.5" y="460" as="sourcePoint" />
          </mxGeometry>
        </mxCell>
        <mxCell id="CLTjU7gQj4OqJzBRMQx3-127" value="" style="rounded=0;orthogonalLoop=1;jettySize=auto;html=1;endArrow=oval;endFill=0;sketch=0;sourcePerimeterSpacing=0;targetPerimeterSpacing=0;endSize=10;" edge="1" parent="1" source="CLTjU7gQj4OqJzBRMQx3-129" target="CLTjU7gQj4OqJzBRMQx3-128">
          <mxGeometry relative="1" as="geometry">
            <mxPoint x="613" y="450" as="sourcePoint" />
          </mxGeometry>
        </mxCell>
        <mxCell id="CLTjU7gQj4OqJzBRMQx3-128" value="" style="ellipse;whiteSpace=wrap;html=1;align=center;aspect=fixed;fillColor=none;strokeColor=none;resizable=0;perimeter=centerPerimeter;rotatable=0;allowArrows=0;points=[];outlineConnect=1;" vertex="1" parent="1">
          <mxGeometry x="601.5" y="490" width="10" height="10" as="geometry" />
        </mxCell>
        <mxCell id="CLTjU7gQj4OqJzBRMQx3-129" value="TCP/IP" style="text;html=1;align=center;verticalAlign=middle;resizable=0;points=[];autosize=1;strokeColor=none;fillColor=none;" vertex="1" parent="1">
          <mxGeometry x="576.5" y="500" width="60" height="30" as="geometry" />
        </mxCell>
        <mxCell id="CLTjU7gQj4OqJzBRMQx3-130" value="" style="endArrow=none;html=1;rounded=0;entryX=0.5;entryY=1.033;entryDx=0;entryDy=0;entryPerimeter=0;" edge="1" parent="1">
          <mxGeometry width="50" height="50" relative="1" as="geometry">
            <mxPoint x="606" y="600" as="sourcePoint" />
            <mxPoint x="606" y="530" as="targetPoint" />
          </mxGeometry>
        </mxCell>
        <mxCell id="CLTjU7gQj4OqJzBRMQx3-131" value="" style="rounded=0;orthogonalLoop=1;jettySize=auto;html=1;endArrow=halfCircle;endFill=0;endSize=6;strokeWidth=1;sketch=0;exitX=0.5;exitY=1;exitDx=0;exitDy=0;" edge="1" parent="1" target="CLTjU7gQj4OqJzBRMQx3-133">
          <mxGeometry relative="1" as="geometry">
            <mxPoint x="760" y="460" as="sourcePoint" />
          </mxGeometry>
        </mxCell>
        <mxCell id="CLTjU7gQj4OqJzBRMQx3-132" value="" style="rounded=0;orthogonalLoop=1;jettySize=auto;html=1;endArrow=oval;endFill=0;sketch=0;sourcePerimeterSpacing=0;targetPerimeterSpacing=0;endSize=10;" edge="1" parent="1" source="CLTjU7gQj4OqJzBRMQx3-134" target="CLTjU7gQj4OqJzBRMQx3-133">
          <mxGeometry relative="1" as="geometry">
            <mxPoint x="766.5" y="450" as="sourcePoint" />
          </mxGeometry>
        </mxCell>
        <mxCell id="CLTjU7gQj4OqJzBRMQx3-133" value="" style="ellipse;whiteSpace=wrap;html=1;align=center;aspect=fixed;fillColor=none;strokeColor=none;resizable=0;perimeter=centerPerimeter;rotatable=0;allowArrows=0;points=[];outlineConnect=1;" vertex="1" parent="1">
          <mxGeometry x="755" y="490" width="10" height="10" as="geometry" />
        </mxCell>
        <mxCell id="CLTjU7gQj4OqJzBRMQx3-134" value="TCP/IP" style="text;html=1;align=center;verticalAlign=middle;resizable=0;points=[];autosize=1;strokeColor=none;fillColor=none;" vertex="1" parent="1">
          <mxGeometry x="730" y="500" width="60" height="30" as="geometry" />
        </mxCell>
        <mxCell id="CLTjU7gQj4OqJzBRMQx3-135" value="" style="endArrow=none;html=1;rounded=0;entryX=0.5;entryY=1.033;entryDx=0;entryDy=0;entryPerimeter=0;" edge="1" parent="1">
          <mxGeometry width="50" height="50" relative="1" as="geometry">
            <mxPoint x="760" y="600" as="sourcePoint" />
            <mxPoint x="759.5" y="530" as="targetPoint" />
          </mxGeometry>
        </mxCell>
        <mxCell id="CLTjU7gQj4OqJzBRMQx3-136" value="" style="endArrow=block;dashed=1;endFill=0;endSize=12;html=1;rounded=0;exitX=0.5;exitY=0;exitDx=0;exitDy=0;entryX=1;entryY=1;entryDx=0;entryDy=0;" edge="1" parent="1" source="CLTjU7gQj4OqJzBRMQx3-21" target="CLTjU7gQj4OqJzBRMQx3-85">
          <mxGeometry width="160" relative="1" as="geometry">
            <mxPoint x="330" y="290" as="sourcePoint" />
            <mxPoint x="300" y="160" as="targetPoint" />
          </mxGeometry>
        </mxCell>
        <mxCell id="CLTjU7gQj4OqJzBRMQx3-138" style="edgeStyle=orthogonalEdgeStyle;rounded=0;orthogonalLoop=1;jettySize=auto;html=1;endArrow=none;startFill=0;" edge="1" parent="1">
          <mxGeometry relative="1" as="geometry">
            <mxPoint x="70" y="600" as="sourcePoint" />
            <mxPoint x="760" y="600" as="targetPoint" />
            <Array as="points">
              <mxPoint x="515" y="600" />
            </Array>
          </mxGeometry>
        </mxCell>
        <mxCell id="CLTjU7gQj4OqJzBRMQx3-140" value="" style="endArrow=none;html=1;rounded=0;entryX=0.5;entryY=1.033;entryDx=0;entryDy=0;entryPerimeter=0;" edge="1" parent="1">
          <mxGeometry width="50" height="50" relative="1" as="geometry">
            <mxPoint x="414.5" y="670" as="sourcePoint" />
            <mxPoint x="414" y="600" as="targetPoint" />
          </mxGeometry>
        </mxCell>
        <mxCell id="CLTjU7gQj4OqJzBRMQx3-141" value="Interface de Usuário&lt;div&gt;(Atleta)&lt;/div&gt;" style="html=1;dropTarget=0;whiteSpace=wrap;" vertex="1" parent="1">
          <mxGeometry x="486" y="60" width="170" height="60" as="geometry" />
        </mxCell>
        <mxCell id="CLTjU7gQj4OqJzBRMQx3-142" value="" style="shape=module;jettyWidth=8;jettyHeight=4;" vertex="1" parent="CLTjU7gQj4OqJzBRMQx3-141">
          <mxGeometry x="1" width="20" height="20" relative="1" as="geometry">
            <mxPoint x="-27" y="7" as="offset" />
          </mxGeometry>
        </mxCell>
        <mxCell id="CLTjU7gQj4OqJzBRMQx3-143" value="" style="endArrow=block;dashed=1;endFill=0;endSize=12;html=1;rounded=0;entryX=0.027;entryY=1.04;entryDx=0;entryDy=0;entryPerimeter=0;" edge="1" parent="1" target="CLTjU7gQj4OqJzBRMQx3-141">
          <mxGeometry width="160" relative="1" as="geometry">
            <mxPoint x="430" y="170" as="sourcePoint" />
            <mxPoint x="270" y="130" as="targetPoint" />
          </mxGeometry>
        </mxCell>
      </root>
    </mxGraphModel>
  </diagram>
</mxfile>
